<svg width="35" height="35" viewBox="0 0 56 55" fill="none" xmlns="http://www.w3.org/2000/svg">
<path d="M27.9167 0C31.5827 0 35.2129 0.700531 38.5999 2.0616C41.9869 3.42266 45.0644 5.41761 47.6567 7.93253C50.249 10.4474 52.3054 13.4331 53.7083 16.719C55.1112 20.0049 55.8333 23.5267 55.8333 27.0833C55.8333 34.2663 52.8921 41.155 47.6567 46.2341C42.4213 51.3133 35.3206 54.1667 27.9167 54.1667C24.2506 54.1667 20.6204 53.4661 17.2334 52.1051C13.8464 50.744 10.7689 48.7491 8.1766 46.2341C2.94121 41.155 0 34.2663 0 27.0833C0 19.9004 2.94121 13.0116 8.1766 7.93253C13.412 2.85341 20.5127 0 27.9167 0ZM19.5417 13.5417V40.625H30.7083C32.1891 40.625 33.6093 40.0543 34.6563 39.0385C35.7034 38.0227 36.2917 36.6449 36.2917 35.2083V18.9583C36.2917 17.5217 35.7034 16.144 34.6563 15.1282C33.6093 14.1124 32.1891 13.5417 30.7083 13.5417H19.5417ZM25.125 18.9583H30.7083V35.2083H25.125V18.9583Z" fill="white"/>
</svg>
