<svg width="711" height="39" viewBox="0 0 711 39" fill="none" xmlns="http://www.w3.org/2000/svg">
<rect x="0.48999" y="1.23999" width="709.24" height="37" rx="18.5" fill="#2E3856"/>
<rect x="0.48999" y="1.23999" width="709.24" height="37" rx="18.5" stroke="#2E3856"/>
<g clip-path="url(#clip0_3_835)">
<rect x="36.01" y="4.22998" width="668.19" height="32" rx="8" fill="#2E3856"/>
<rect width="668.13" height="38" transform="translate(36.01 1.23999)" fill="#2E3856"/>
<path d="M45.2491 14.6477V24.75H43.4338V16.167H39.0141V24.75H37.1988V14.6477H45.2491ZM50.664 24.898C49.9241 24.898 49.2828 24.7352 48.7402 24.4096C48.1976 24.0841 47.7767 23.6286 47.4774 23.0433C47.1815 22.4579 47.0335 21.7739 47.0335 20.9912C47.0335 20.2086 47.1815 19.5229 47.4774 18.9343C47.7767 18.3456 48.1976 17.8885 48.7402 17.563C49.2828 17.2374 49.9241 17.0746 50.664 17.0746C51.4039 17.0746 52.0451 17.2374 52.5878 17.563C53.1304 17.8885 53.5496 18.3456 53.8456 18.9343C54.1449 19.5229 54.2945 20.2086 54.2945 20.9912C54.2945 21.7739 54.1449 22.4579 53.8456 23.0433C53.5496 23.6286 53.1304 24.0841 52.5878 24.4096C52.0451 24.7352 51.4039 24.898 50.664 24.898ZM50.6738 23.4675C51.075 23.4675 51.4105 23.3573 51.6801 23.137C51.9498 22.9134 52.1504 22.6141 52.2819 22.2392C52.4167 21.8643 52.4842 21.4467 52.4842 20.9863C52.4842 20.5226 52.4167 20.1033 52.2819 19.7285C52.1504 19.3503 51.9498 19.0494 51.6801 18.8258C51.4105 18.6021 51.075 18.4903 50.6738 18.4903C50.2628 18.4903 49.9208 18.6021 49.6478 18.8258C49.3782 19.0494 49.1759 19.3503 49.0411 19.7285C48.9096 20.1033 48.8438 20.5226 48.8438 20.9863C48.8438 21.4467 48.9096 21.8643 49.0411 22.2392C49.1759 22.6141 49.3782 22.9134 49.6478 23.137C49.9208 23.3573 50.2628 23.4675 50.6738 23.4675ZM55.8101 17.1733H57.5316V23.28H59.9141V17.1733H61.6356V23.28H64.0182V17.1733H65.7397V24.75H55.8101V17.1733ZM68.3824 27.5913C68.1391 27.5913 67.9138 27.5715 67.7066 27.5321C67.5027 27.4959 67.34 27.4531 67.2183 27.4038L67.6326 26.0128C67.8924 26.0884 68.1243 26.1246 68.3282 26.1213C68.532 26.118 68.7113 26.0539 68.8658 25.9289C69.0237 25.8073 69.1569 25.6034 69.2654 25.3173L69.4183 24.9078L66.6708 17.1733H68.5649L70.3111 22.8953H70.39L72.1412 17.1733H74.0403L71.0066 25.6675C70.8652 26.0687 70.6778 26.4123 70.4443 26.6984C70.2108 26.9878 69.9247 27.2082 69.586 27.3594C69.2506 27.514 68.8494 27.5913 68.3824 27.5913ZM75.2759 24.75V17.1733H77.0616V20.2316H77.7127L79.9916 17.1733H82.1423L79.3356 20.8926L82.1719 24.75H80.0114L77.9347 21.8939H77.0616V24.75H75.2759ZM84.2844 24.8585C83.9851 24.8585 83.7286 24.7533 83.5149 24.5428C83.3011 24.3324 83.1959 24.0759 83.1992 23.7733C83.1959 23.4774 83.3011 23.2241 83.5149 23.0137C83.7286 22.8032 83.9851 22.698 84.2844 22.698C84.5738 22.698 84.8253 22.8032 85.0391 23.0137C85.2561 23.2241 85.3663 23.4774 85.3696 23.7733C85.3663 23.9739 85.3137 24.1564 85.2117 24.3209C85.1131 24.4853 84.9815 24.6168 84.8171 24.7155C84.656 24.8108 84.4784 24.8585 84.2844 24.8585ZM88.3132 24.8585C88.0139 24.8585 87.7574 24.7533 87.5437 24.5428C87.3299 24.3324 87.2247 24.0759 87.228 23.7733C87.2247 23.4774 87.3299 23.2241 87.5437 23.0137C87.7574 22.8032 88.0139 22.698 88.3132 22.698C88.6026 22.698 88.8542 22.8032 89.0679 23.0137C89.2849 23.2241 89.3951 23.4774 89.3984 23.7733C89.3951 23.9739 89.3425 24.1564 89.2406 24.3209C89.1419 24.4853 89.0104 24.6168 88.8459 24.7155C88.6848 24.8108 88.5072 24.8585 88.3132 24.8585ZM92.342 24.8585C92.0428 24.8585 91.7863 24.7533 91.5725 24.5428C91.3588 24.3324 91.2535 24.0759 91.2568 23.7733C91.2535 23.4774 91.3588 23.2241 91.5725 23.0137C91.7863 22.8032 92.0428 22.698 92.342 22.698C92.6314 22.698 92.883 22.8032 93.0967 23.0137C93.3138 23.2241 93.4239 23.4774 93.4272 23.7733C93.4239 23.9739 93.3713 24.1564 93.2694 24.3209C93.1707 24.4853 93.0392 24.6168 92.8748 24.7155C92.7136 24.8108 92.536 24.8585 92.342 24.8585Z" fill="#D9DDE8"/>
</g>
<g clip-path="url(#clip1_3_835)">
<path fill-rule="evenodd" clip-rule="evenodd" d="M19.8391 22.967C21.7709 22.967 23.3369 21.401 23.3369 19.4692C23.3369 17.5374 21.7709 15.9714 19.8391 15.9714C17.9073 15.9714 16.3413 17.5374 16.3413 19.4692C16.3413 21.401 17.9073 22.967 19.8391 22.967ZM23.5457 22.5667C24.2471 21.7281 24.6694 20.648 24.6694 19.4692C24.6694 16.8015 22.5068 14.6389 19.8391 14.6389C17.1714 14.6389 15.0088 16.8015 15.0088 19.4692C15.0088 22.137 17.1714 24.2995 19.8391 24.2995C20.8471 24.2995 21.783 23.9908 22.5573 23.4627L25.5308 26.4363C25.791 26.6964 26.2128 26.6964 26.473 26.4363C26.7332 26.1761 26.7332 25.7542 26.473 25.4941L23.5457 22.5667Z" fill="#D9DDE8"/>
</g>
<defs>
<clipPath id="clip0_3_835">
<rect x="36.01" y="4.22998" width="668.19" height="32" rx="8" fill="white"/>
</clipPath>
<clipPath id="clip1_3_835">
<rect width="15.99" height="15.99" fill="white" transform="translate(13.01 12.6401)"/>
</clipPath>
</defs>
</svg>
