<svg width="16" height="17" viewBox="0 0 16 17" fill="none" xmlns="http://www.w3.org/2000/svg">
<g id="search">
<path id="Vector" fill-rule="evenodd" clip-rule="evenodd" d="M6.8391 10.967C8.77089 10.967 10.3369 9.40102 10.3369 7.46923C10.3369 5.53744 8.77089 3.97142 6.8391 3.97142C4.90731 3.97142 3.34129 5.53744 3.34129 7.46923C3.34129 9.40102 4.90731 10.967 6.8391 10.967ZM10.5457 10.5667C11.2471 9.72815 11.6694 8.64803 11.6694 7.46923C11.6694 4.80152 9.50683 2.63892 6.8391 2.63892C4.1714 2.63892 2.00879 4.80152 2.00879 7.46923C2.00879 10.137 4.1714 12.2995 6.8391 12.2995C7.84707 12.2995 8.78295 11.9908 9.55727 11.4627L12.5308 14.4363C12.791 14.6964 13.2128 14.6964 13.473 14.4363C13.7332 14.1761 13.7332 13.7542 13.473 13.4941L10.5457 10.5667Z" fill="#D9DDE8"/>
</g>
</svg>
